# xmcd
#
# Track frame offsets: 
#        150
#        20124
#        39489
#        61056
#        88021
#        100807
#        115091
#        127578
#        144038
#        161269
#        178356
#        202727
#        220964
#        235383
#        257089
#
# Disc length: 3689 seconds
#
# Revision: 0
# Processed by: cddbd v1.5.2PL0 Copyright (c) Steve Scherf et al.
# Submitted via: ExactAudioCopy v0.95a5
#
DISCID=c20e670f
DTITLE=Frank 'Paris Slim' Goldwasser - Bluju
DYEAR=2007
DGENRE=Blues
TTITLE0=Feels Like Home
TTITLE1=Back Door Key
TTITLE2=Twelve Year Old Boy
TTITLE3=Well, Well, Josephine
TTITLE4=Melba's Bump
TTITLE5=I Can't Stand It
TTITLE6=I'm A Love You
TTITLE7=Homesick Blues
TTITLE8=Playing In The Park
TTITLE9=Don't Take Away My Love
TTITLE10=Three Sisters
TTITLE11=Petit A Petit (L'Oiseau Fait Son Nid)
TTITLE12=Bluju
TTITLE13=She's Gone (Bonus Track)
TTITLE14=55th Street Boogie (Bonus Track)
EXTD=
EXTT0=
EXTT1=
EXTT2=
EXTT3=
EXTT4=
EXTT5=
EXTT6=
EXTT7=
EXTT8=
EXTT9=
EXTT10=
EXTT11=
EXTT12=
EXTT13=
EXTT14=
PLAYORDER=
